<svg width="1366" height="768" viewBox="0 0 1366 768" fill="none" xmlns="http://www.w3.org/2000/svg">
<g opacity="0.15">
<path opacity="0.1" d="M1226.64 761.417C1216.46 766.621 1205.78 771.115 1195.26 775.595C1156.37 791.872 1116.89 808.29 1075.11 813.876C996.636 824.226 915.663 795.87 838.567 813.564C773.986 828.338 720.576 873.608 657.482 893.769C628.145 903.141 597.621 906.813 566.826 906.813H562.849C559.035 906.766 555.249 906.671 551.492 906.529C520.267 905.367 488.913 900.787 458.304 894.932C361.654 876.5 263.287 842.714 189.395 780.515C404.55 741.554 847.749 681.751 1226.64 761.417Z" fill="#252223"/>
<path opacity="0.3" d="M1301.63 295.032V204.293H1247.28V295.032H1182.91V154.67H1135.71V49.7529H1097.09V-58H1016.99V49.7529H978.371V154.67H932.599V28.4859H906.852V-35.3152H891.118V28.4859H799.575V431.141H729.487V388.607H686.576V431.141H616.488V295.032H490.616V204.293H436.262V295.032H433.401V469.422H376.186V367.34H307.529V469.422H250.314V154.67H205.973V49.7529H42.911V154.67H0V709.03H250.314H433.401H616.488H799.575H932.599H1182.91H1366V295.032H1301.63Z" fill="#8E8E8E"/>
<path opacity="0.4" d="M87.2523 187.28H27.177V221.307H87.2523V187.28Z" fill="white"/>
<path opacity="0.4" d="M161.631 221.307H221.707V187.279H161.631V221.307Z" fill="white"/>
<path opacity="0.4" d="M87.2523 253.916H27.177V287.943H87.2523V253.916Z" fill="white"/>
<path opacity="0.4" d="M161.631 287.943H221.707V253.916H161.631V287.943Z" fill="white"/>
<path opacity="0.4" d="M87.2523 320.553H27.177V354.58H87.2523V320.553Z" fill="white"/>
<path opacity="0.4" d="M161.631 354.58H221.707V320.553H161.631V354.58Z" fill="white"/>
<path opacity="0.4" d="M87.2523 387.189H27.177V421.217H87.2523V387.189Z" fill="white"/>
<path opacity="0.4" d="M161.631 421.217H221.707V387.19H161.631V421.217Z" fill="white"/>
<path opacity="0.4" d="M87.2523 453.826H27.177V487.853H87.2523V453.826Z" fill="white"/>
<path opacity="0.4" d="M161.631 487.854H221.707V453.826H161.631V487.854Z" fill="white"/>
<path opacity="0.4" d="M87.2523 520.463H27.177V554.49H87.2523V520.463Z" fill="white"/>
<path opacity="0.4" d="M161.631 554.49H221.707V520.463H161.631V554.49Z" fill="white"/>
<path opacity="0.4" d="M87.2523 587.1H27.177V621.127H87.2523V587.1Z" fill="white"/>
<path opacity="0.4" d="M161.631 621.127H221.707V587.1H161.631V621.127Z" fill="white"/>
<path opacity="0.4" d="M411.946 503.449H271.77V520.463H411.946V503.449Z" fill="white"/>
<path opacity="0.4" d="M411.946 528.97H271.77V545.983H411.946V528.97Z" fill="white"/>
<path opacity="0.4" d="M411.946 554.49H271.77V571.504H411.946V554.49Z" fill="white"/>
<path opacity="0.4" d="M778.119 511.956H637.943V528.97H778.119V511.956Z" fill="white"/>
<path opacity="0.4" d="M778.119 537.477H637.943V554.49H778.119V537.477Z" fill="white"/>
<path opacity="0.4" d="M778.119 562.997H637.943V580.011H778.119V562.997Z" fill="white"/>
<path opacity="0.4" d="M411.946 580.01H271.77V597.024H411.946V580.01Z" fill="white"/>
<path opacity="0.4" d="M411.946 605.531H271.77V622.544H411.946V605.531Z" fill="white"/>
<path opacity="0.4" d="M411.946 631.051H271.77V648.065H411.946V631.051Z" fill="white"/>
<path opacity="0.4" d="M502.059 327.642H463.439V377.265H502.059V327.642Z" fill="white"/>
<path opacity="0.4" d="M547.83 377.265H586.45V327.642H547.83V377.265Z" fill="white"/>
<path opacity="0.4" d="M502.059 407.039H463.439V456.662H502.059V407.039Z" fill="white"/>
<path opacity="0.4" d="M547.83 456.662H586.45V407.039H547.83V456.662Z" fill="white"/>
<path opacity="0.4" d="M502.059 486.436H463.439V536.059H502.059V486.436Z" fill="white"/>
<path opacity="0.4" d="M547.83 536.059H586.45V486.436H547.83V536.059Z" fill="white"/>
<path opacity="0.4" d="M502.059 565.833H463.439V615.456H502.059V565.833Z" fill="white"/>
<path opacity="0.4" d="M547.83 615.456H586.45V565.833H547.83V615.456Z" fill="white"/>
<path opacity="0.4" d="M851.068 61.0952H799.575V126.314H851.068V61.0952Z" fill="white"/>
<path opacity="0.4" d="M851.068 154.67H799.575V219.889H851.068V154.67Z" fill="white"/>
<path opacity="0.4" d="M851.068 248.245H799.575V313.464H851.068V248.245Z" fill="white"/>
<path opacity="0.4" d="M851.068 341.82H799.575V407.039H851.068V341.82Z" fill="white"/>
<path opacity="0.4" d="M851.068 435.395H799.575V500.613H851.068V435.395Z" fill="white"/>
<path opacity="0.4" d="M851.068 528.97H799.575V594.189H851.068V528.97Z" fill="white"/>
<path opacity="0.4" d="M1153.59 194.369H961.921V249.663H1153.59V194.369Z" fill="white"/>
<path opacity="0.4" d="M1154.31 313.464H962.637V368.758H1154.31V313.464Z" fill="white"/>
<path opacity="0.4" d="M1155.02 432.559H963.352V487.853H1155.02V432.559Z" fill="white"/>
<path opacity="0.4" d="M1155.74 551.654H964.067V606.949H1155.74V551.654Z" fill="white"/>
<path opacity="0.4" d="M68.6576 79.5266H42.911V133.403H68.6576V79.5266Z" fill="white"/>
<path opacity="0.4" d="M1366 327.642H1301.63V409.875H1366V327.642Z" fill="white"/>
<path opacity="0.4" d="M1366 446.737H1301.63V528.97H1366V446.737Z" fill="white"/>
<path opacity="0.4" d="M1366 565.833H1301.63V648.065H1366V565.833Z" fill="white"/>
<path d="M71.0464 621.907C71.0464 621.907 -41.5664 689.252 166.023 792.936C166.023 792.936 211.794 708.775 161.188 640.154C151.373 626.778 136.95 617.435 120.65 613.894C104.351 610.354 87.3074 612.861 72.7485 620.943L71.0464 621.907Z" fill="#8E8E8E"/>
<path d="M72.3481 620.488C72.3481 620.488 168.712 693.576 166.023 792.935" stroke="#535461" stroke-miterlimit="10"/>
<path d="M171.258 796.764C171.258 796.764 135.971 678.009 177.88 590.601C195.474 553.923 201.31 512.735 193.185 472.924C189.3 454.022 183.674 435.513 176.378 417.629" stroke="#535461" stroke-width="2" stroke-miterlimit="10"/>
<path d="M202.397 362.463C202.397 377.024 175.806 419.175 175.806 419.175C175.806 419.175 149.216 376.967 149.216 362.463C149.134 358.952 149.76 355.459 151.059 352.191C152.358 348.923 154.303 345.945 156.78 343.432C159.257 340.92 162.215 338.923 165.481 337.56C168.747 336.197 172.255 335.495 175.799 335.495C179.343 335.495 182.851 336.197 186.117 337.56C189.383 338.923 192.342 340.92 194.818 343.432C197.295 345.945 199.24 348.923 200.539 352.191C201.838 355.459 202.465 358.952 202.382 362.463H202.397Z" fill="#8E8E8E"/>
<path d="M246.395 443.08C238.413 455.301 192.956 476.398 192.956 476.398C192.956 476.398 193.786 426.647 201.767 414.426C205.682 408.75 211.68 404.815 218.481 403.461C225.281 402.106 232.347 403.44 238.169 407.177C243.992 410.913 248.111 416.758 249.648 423.462C251.185 430.167 250.017 437.202 246.395 443.065V443.08Z" fill="#8E8E8E"/>
<path d="M244.464 580.848C231.348 587.398 181.371 582.875 181.371 582.875C181.371 582.875 207.417 540.341 220.534 533.791C226.81 530.807 234.016 530.382 240.605 532.606C247.194 534.83 252.64 539.526 255.775 545.686C258.909 551.846 259.482 558.979 257.37 565.553C255.258 572.127 250.629 577.619 244.478 580.848H244.464Z" fill="#8E8E8E"/>
<path d="M219.333 684.758C207.532 693.407 157.483 697.32 157.483 697.32C157.483 697.32 175.907 651.043 187.707 642.38C190.512 640.289 193.707 638.769 197.107 637.907C200.508 637.046 204.047 636.861 207.52 637.362C210.993 637.863 214.332 639.04 217.344 640.827C220.356 642.613 222.981 644.973 225.068 647.769C227.155 650.566 228.663 653.745 229.505 657.123C230.347 660.5 230.506 664.009 229.972 667.448C229.439 670.886 228.225 674.186 226.398 677.157C224.572 680.128 222.171 682.712 219.333 684.758Z" fill="#8E8E8E"/>
<path d="M137.129 479.219C147.657 489.356 196.733 499.862 196.733 499.862C196.733 499.862 184.718 451.557 174.19 441.406C171.707 438.898 168.743 436.907 165.472 435.551C162.201 434.195 158.69 433.501 155.145 433.51C151.599 433.519 148.092 434.231 144.828 435.603C141.564 436.975 138.61 438.981 136.14 441.501C133.669 444.022 131.732 447.007 130.443 450.28C129.153 453.554 128.537 457.05 128.631 460.563C128.724 464.076 129.525 467.534 130.987 470.736C132.449 473.937 134.542 476.817 137.144 479.205L137.129 479.219Z" fill="#8E8E8E"/>
<path d="M109.294 601.107C122.411 607.657 172.388 603.134 172.388 603.134C172.388 603.134 146.341 560.6 133.224 554.05C126.948 551.066 119.742 550.641 113.154 552.865C106.565 555.089 101.118 559.785 97.9836 565.946C94.8491 572.106 94.2764 579.239 96.3885 585.813C98.5006 592.387 103.129 597.878 109.28 601.107H109.294Z" fill="#8E8E8E"/>
<path d="M98.6379 723.266C110.438 731.914 160.487 735.827 160.487 735.827C160.487 735.827 142.064 689.536 130.249 680.888C124.576 676.797 117.502 675.094 110.567 676.151C103.633 677.207 97.4016 680.937 93.2295 686.527C89.0575 692.118 87.2834 699.116 88.2937 705.998C89.3041 712.879 93.017 719.086 98.6236 723.266H98.6379Z" fill="#8E8E8E"/>
<path opacity="0.25" d="M202.397 362.463C202.397 377.024 175.806 419.175 175.806 419.175C175.806 419.175 149.216 376.967 149.216 362.463C149.134 358.952 149.76 355.459 151.059 352.191C152.358 348.923 154.303 345.945 156.78 343.432C159.257 340.92 162.215 338.923 165.481 337.56C168.747 336.197 172.255 335.495 175.799 335.495C179.343 335.495 182.851 336.197 186.117 337.56C189.383 338.923 192.342 340.92 194.818 343.432C197.295 345.945 199.24 348.923 200.539 352.191C201.838 355.459 202.465 358.952 202.382 362.463H202.397Z" fill="black"/>
<path opacity="0.25" d="M246.395 443.08C238.413 455.301 192.956 476.398 192.956 476.398C192.956 476.398 193.786 426.647 201.767 414.426C205.682 408.75 211.68 404.815 218.481 403.461C225.281 402.106 232.347 403.44 238.169 407.177C243.992 410.913 248.111 416.758 249.648 423.462C251.185 430.167 250.017 437.202 246.395 443.065V443.08Z" fill="black"/>
<path opacity="0.25" d="M244.464 580.848C231.348 587.398 181.371 582.875 181.371 582.875C181.371 582.875 207.417 540.341 220.534 533.791C226.81 530.807 234.016 530.382 240.605 532.606C247.194 534.83 252.64 539.526 255.775 545.686C258.909 551.846 259.482 558.979 257.37 565.553C255.258 572.127 250.629 577.619 244.478 580.848H244.464Z" fill="black"/>
<path opacity="0.25" d="M219.333 684.758C207.532 693.407 157.483 697.32 157.483 697.32C157.483 697.32 175.907 651.043 187.707 642.38C190.512 640.289 193.707 638.769 197.107 637.907C200.508 637.046 204.047 636.861 207.52 637.362C210.993 637.863 214.332 639.04 217.344 640.827C220.356 642.613 222.981 644.973 225.068 647.769C227.155 650.566 228.663 653.745 229.505 657.123C230.347 660.5 230.506 664.009 229.972 667.448C229.439 670.886 228.225 674.186 226.398 677.157C224.572 680.128 222.171 682.712 219.333 684.758Z" fill="black"/>
<path opacity="0.25" d="M137.129 479.219C147.657 489.356 196.733 499.862 196.733 499.862C196.733 499.862 184.718 451.557 174.19 441.406C171.707 438.898 168.743 436.907 165.472 435.551C162.201 434.195 158.69 433.501 155.145 433.51C151.599 433.519 148.092 434.231 144.828 435.603C141.564 436.975 138.61 438.981 136.14 441.501C133.669 444.022 131.732 447.007 130.443 450.28C129.153 453.554 128.537 457.05 128.631 460.563C128.724 464.076 129.525 467.534 130.987 470.736C132.449 473.937 134.542 476.817 137.144 479.205L137.129 479.219Z" fill="black"/>
<path opacity="0.25" d="M109.294 601.107C122.411 607.657 172.388 603.134 172.388 603.134C172.388 603.134 146.341 560.6 133.224 554.05C126.948 551.066 119.742 550.641 113.154 552.865C106.565 555.089 101.118 559.785 97.9836 565.946C94.8491 572.106 94.2764 579.239 96.3885 585.813C98.5006 592.387 103.129 597.878 109.28 601.107H109.294Z" fill="black"/>
<path opacity="0.25" d="M98.6379 723.266C110.438 731.914 160.487 735.827 160.487 735.827C160.487 735.827 142.064 689.536 130.249 680.888C124.576 676.797 117.502 675.094 110.567 676.151C103.633 677.207 97.4016 680.937 93.2295 686.527C89.0575 692.118 87.2834 699.116 88.2937 705.998C89.3041 712.879 93.017 719.086 98.6236 723.266H98.6379Z" fill="black"/>
<path d="M1272.71 766.097C1272.71 766.097 1237.42 647.342 1279.33 559.934C1296.93 523.256 1302.76 482.068 1294.64 442.257C1290.75 423.355 1285.13 404.846 1277.83 386.962" stroke="#535461" stroke-width="2" stroke-miterlimit="10"/>
<path d="M1303.91 331.796C1303.91 346.357 1277.32 388.508 1277.32 388.508C1277.32 388.508 1250.73 346.3 1250.73 331.796C1250.64 328.285 1251.27 324.792 1252.57 321.524C1253.87 318.256 1255.81 315.278 1258.29 312.765C1260.77 310.253 1263.73 308.256 1266.99 306.893C1270.26 305.53 1273.77 304.828 1277.31 304.828C1280.85 304.828 1284.36 305.53 1287.63 306.893C1290.89 308.256 1293.85 310.253 1296.33 312.765C1298.81 315.278 1300.75 318.256 1302.05 321.524C1303.35 324.792 1303.98 328.285 1303.89 331.796H1303.91Z" fill="#8E8E8E"/>
<path d="M1347.85 412.413C1339.87 424.634 1294.41 445.731 1294.41 445.731C1294.41 445.731 1295.24 395.98 1303.22 383.759C1305.07 380.76 1307.51 378.158 1310.4 376.108C1313.28 374.058 1316.55 372.6 1320.01 371.821C1323.47 371.042 1327.05 370.957 1330.54 371.571C1334.04 372.186 1337.37 373.487 1340.35 375.398C1343.33 377.31 1345.89 379.793 1347.89 382.701C1349.88 385.609 1351.27 388.883 1351.97 392.331C1352.67 395.779 1352.66 399.331 1351.95 402.778C1351.25 406.224 1349.85 409.495 1347.85 412.399V412.413Z" fill="#8E8E8E"/>
<path d="M1345.93 550.179C1332.82 556.729 1282.84 552.207 1282.84 552.207C1282.84 552.207 1308.89 509.673 1322 503.122C1328.28 500.139 1335.48 499.713 1342.07 501.937C1348.66 504.161 1354.11 508.858 1357.24 515.018C1360.38 521.178 1360.95 528.311 1358.84 534.885C1356.73 541.459 1352.1 546.95 1345.95 550.179H1345.93Z" fill="#8E8E8E"/>
<path d="M1320.8 654.091C1309 662.74 1258.95 666.653 1258.95 666.653C1258.95 666.653 1277.37 620.376 1289.17 611.713C1294.85 607.623 1301.92 605.92 1308.86 606.976C1315.79 608.033 1322.02 611.763 1326.19 617.353C1330.37 622.944 1332.14 629.942 1331.13 636.823C1330.12 643.705 1326.41 649.911 1320.8 654.091Z" fill="#8E8E8E"/>
<path d="M1238.58 448.509C1249.11 458.647 1298.19 469.153 1298.19 469.153C1298.19 469.153 1286.17 420.848 1275.64 410.697C1270.59 405.825 1263.78 403.145 1256.73 403.246C1249.68 403.347 1242.95 406.221 1238.04 411.235C1233.12 416.25 1230.42 422.994 1230.52 429.984C1230.62 436.974 1233.52 443.638 1238.58 448.509Z" fill="#8E8E8E"/>
<path d="M1210.81 570.44C1223.92 576.99 1273.9 572.467 1273.9 572.467C1273.9 572.467 1247.85 529.933 1234.74 523.383C1228.46 520.445 1221.28 520.051 1214.73 522.286C1208.17 524.522 1202.75 529.209 1199.63 535.348C1196.5 541.487 1195.93 548.592 1198.01 555.148C1200.1 561.704 1204.69 567.191 1210.81 570.44Z" fill="#8E8E8E"/>
<path d="M1200.09 692.598C1211.89 701.246 1261.94 705.159 1261.94 705.159C1261.94 705.159 1243.52 658.882 1231.72 650.22C1226.04 646.129 1218.97 644.426 1212.04 645.483C1205.1 646.539 1198.87 650.269 1194.7 655.859C1190.53 661.45 1188.75 668.448 1189.76 675.33C1190.77 682.211 1194.49 688.418 1200.09 692.598Z" fill="#8E8E8E"/>
<path d="M1113.54 754.541C1113.54 754.541 1094.57 690.74 1117.1 643.754C1126.67 624.114 1129.56 601.925 1125.33 580.52C1123.24 570.376 1120.22 560.443 1116.3 550.846" stroke="#535461" stroke-width="2" stroke-miterlimit="10"/>
<path d="M1130.3 521.144C1130.3 528.97 1116 551.641 1116 551.641C1116 551.641 1101.7 528.956 1101.7 521.144C1101.7 517.384 1103.2 513.777 1105.89 511.118C1108.57 508.46 1112.21 506.966 1116 506.966C1119.79 506.966 1123.43 508.46 1126.11 511.118C1128.8 513.777 1130.3 517.384 1130.3 521.144Z" fill="#8E8E8E"/>
<path d="M1153.92 564.472C1149.63 571.036 1125.2 582.378 1125.2 582.378C1125.2 582.378 1125.64 555.639 1129.93 549.074C1130.91 547.42 1132.21 545.979 1133.77 544.839C1135.32 543.698 1137.09 542.882 1138.97 542.438C1140.85 541.995 1142.8 541.934 1144.71 542.26C1146.61 542.585 1148.43 543.29 1150.05 544.331C1151.68 545.373 1153.07 546.73 1154.15 548.32C1155.23 549.91 1155.97 551.7 1156.33 553.582C1156.69 555.465 1156.66 557.4 1156.25 559.272C1155.84 561.143 1155.04 562.912 1153.92 564.472Z" fill="#8E8E8E"/>
<path d="M1152.89 638.495C1145.84 642.011 1118.98 639.587 1118.98 639.587C1118.98 639.587 1132.98 616.732 1140.02 613.216C1143.38 611.711 1147.19 611.55 1150.67 612.768C1154.15 613.985 1157.02 616.487 1158.68 619.75C1160.34 623.013 1160.66 626.786 1159.58 630.282C1158.51 633.777 1156.11 636.725 1152.89 638.509V638.495Z" fill="#8E8E8E"/>
<path d="M1139.37 694.342C1133.02 698.992 1106.13 701.091 1106.13 701.091C1106.13 701.091 1116.03 676.222 1122.38 671.572C1125.44 669.551 1129.16 668.773 1132.78 669.399C1136.4 670.025 1139.63 672.007 1141.82 674.934C1144 677.862 1144.97 681.51 1144.51 685.123C1144.06 688.736 1142.22 692.037 1139.37 694.342Z" fill="#8E8E8E"/>
<path d="M1095.2 583.894C1100.92 589.339 1127.23 594.996 1127.23 594.996C1127.23 594.996 1120.78 569.036 1115.11 563.591C1113.79 562.192 1112.19 561.073 1110.42 560.302C1108.65 559.532 1106.74 559.125 1104.8 559.108C1102.87 559.091 1100.95 559.463 1099.17 560.202C1097.38 560.941 1095.76 562.031 1094.42 563.407C1093.07 564.782 1092.02 566.415 1091.32 568.206C1090.63 569.996 1090.31 571.908 1090.38 573.825C1090.46 575.741 1090.92 577.623 1091.75 579.356C1092.58 581.09 1093.75 582.638 1095.2 583.909V583.894Z" fill="#8E8E8E"/>
<path d="M1080.24 649.397C1087.29 652.913 1114.16 650.489 1114.16 650.489C1114.16 650.489 1100.15 627.634 1093.11 624.118C1089.75 622.613 1085.94 622.453 1082.46 623.67C1078.98 624.888 1076.12 627.389 1074.45 630.652C1072.79 633.916 1072.47 637.689 1073.55 641.184C1074.63 644.679 1077.02 647.627 1080.24 649.412V649.397Z" fill="#8E8E8E"/>
<path d="M1074.52 715.056C1080.87 719.706 1107.76 721.805 1107.76 721.805C1107.76 721.805 1097.81 696.922 1091.51 692.272C1088.46 690.212 1084.71 689.404 1081.07 690.019C1077.43 690.633 1074.16 692.622 1071.97 695.568C1069.77 698.514 1068.81 702.188 1069.28 705.821C1069.76 709.454 1071.64 712.764 1074.52 715.056Z" fill="#8E8E8E"/>
<path opacity="0.1" d="M378.589 9.60068H368.748C369.679 9.64274 370.609 9.49734 371.482 9.17324C372.354 8.84914 373.151 8.35307 373.825 7.71501C374.499 7.07695 375.035 6.31014 375.402 5.4609C375.768 4.61166 375.957 3.69762 375.957 2.77399C375.957 1.85036 375.768 0.936319 375.402 0.0870781C375.035 -0.762163 374.499 -1.52899 373.825 -2.16705C373.151 -2.80511 372.354 -3.30116 371.482 -3.62526C370.609 -3.94936 369.679 -4.09478 368.748 -4.05273H289.034C287.262 -3.97265 285.589 -3.21843 284.363 -1.94694C283.138 -0.675456 282.454 1.01543 282.454 2.77399C282.454 4.53255 283.138 6.22341 284.363 7.4949C285.589 8.76639 287.262 9.5206 289.034 9.60068H298.875C297.944 9.55862 297.014 9.70405 296.142 10.0281C295.269 10.3523 294.472 10.8483 293.798 11.4864C293.125 12.1244 292.588 12.8912 292.222 13.7405C291.856 14.5897 291.667 15.5038 291.667 16.4274C291.667 17.351 291.856 18.2651 292.222 19.1143C292.588 19.9636 293.125 20.7304 293.798 21.3684C294.472 22.0065 295.269 22.5025 296.142 22.8266C297.014 23.1508 297.944 23.2962 298.875 23.2541H285.101C284.17 23.2121 283.24 23.3575 282.367 23.6816C281.495 24.0057 280.698 24.5018 280.024 25.1398C279.35 25.7779 278.814 26.5447 278.448 27.3939C278.081 28.2432 277.892 29.1572 277.892 30.0808C277.892 31.0045 278.081 31.9185 278.448 32.7677C278.814 33.617 279.35 34.3838 280.024 35.0218C280.698 35.6599 281.495 36.156 282.367 36.4801C283.24 36.8042 284.17 36.9496 285.101 36.9075H364.815C365.746 36.9496 366.676 36.8042 367.548 36.4801C368.421 36.156 369.218 35.6599 369.892 35.0218C370.565 34.3838 371.102 33.617 371.468 32.7677C371.834 31.9185 372.023 31.0045 372.023 30.0808C372.023 29.1572 371.834 28.2432 371.468 27.3939C371.102 26.5447 370.565 25.7779 369.892 25.1398C369.218 24.5018 368.421 24.0057 367.548 23.6816C366.676 23.3575 365.746 23.2121 364.815 23.2541H378.589C379.52 23.2962 380.45 23.1508 381.323 22.8266C382.195 22.5025 382.992 22.0065 383.666 21.3684C384.34 20.7304 384.876 19.9636 385.242 19.1143C385.609 18.2651 385.798 17.351 385.798 16.4274C385.798 15.5038 385.609 14.5897 385.242 13.7405C384.876 12.8912 384.34 12.1244 383.666 11.4864C382.992 10.8483 382.195 10.3523 381.323 10.0281C380.45 9.70405 379.52 9.55862 378.589 9.60068Z" fill="#252223"/>
<path opacity="0.1" d="M730.46 181.155H720.619C721.549 181.197 722.479 181.051 723.352 180.727C724.224 180.403 725.022 179.907 725.695 179.269C726.369 178.631 726.905 177.864 727.272 177.015C727.638 176.166 727.827 175.252 727.827 174.328C727.827 173.404 727.638 172.49 727.272 171.641C726.905 170.792 726.369 170.025 725.695 169.387C725.022 168.749 724.224 168.253 723.352 167.929C722.479 167.605 721.549 167.459 720.619 167.501H640.904C639.132 167.581 637.459 168.336 636.233 169.607C635.008 170.879 634.324 172.569 634.324 174.328C634.324 176.087 635.008 177.777 636.233 179.049C637.459 180.32 639.132 181.075 640.904 181.155H650.745C649.814 181.113 648.885 181.258 648.012 181.582C647.14 181.906 646.342 182.402 645.669 183.04C644.995 183.678 644.459 184.445 644.092 185.294C643.726 186.144 643.537 187.058 643.537 187.981C643.537 188.905 643.726 189.819 644.092 190.668C644.459 191.518 644.995 192.284 645.669 192.922C646.342 193.56 647.14 194.057 648.012 194.381C648.885 194.705 649.814 194.85 650.745 194.808H636.971C636.04 194.766 635.11 194.911 634.238 195.236C633.365 195.56 632.568 196.056 631.894 196.694C631.22 197.332 630.684 198.099 630.318 198.948C629.951 199.797 629.763 200.711 629.763 201.635C629.763 202.558 629.951 203.472 630.318 204.322C630.684 205.171 631.22 205.938 631.894 206.576C632.568 207.214 633.365 207.71 634.238 208.034C635.11 208.358 636.04 208.504 636.971 208.462H716.685C717.616 208.504 718.546 208.358 719.418 208.034C720.291 207.71 721.088 207.214 721.762 206.576C722.436 205.938 722.972 205.171 723.338 204.322C723.705 203.472 723.893 202.558 723.893 201.635C723.893 200.711 723.705 199.797 723.338 198.948C722.972 198.099 722.436 197.332 721.762 196.694C721.088 196.056 720.291 195.56 719.418 195.236C718.546 194.911 717.616 194.766 716.685 194.808H730.46C731.39 194.85 732.32 194.705 733.193 194.381C734.065 194.057 734.863 193.56 735.536 192.922C736.21 192.284 736.746 191.518 737.113 190.668C737.479 189.819 737.668 188.905 737.668 187.981C737.668 187.058 737.479 186.144 737.113 185.294C736.746 184.445 736.21 183.678 735.536 183.04C734.863 182.402 734.065 181.906 733.193 181.582C732.32 181.258 731.39 181.113 730.46 181.155Z" fill="#252223"/>
<path d="M568.671 447.007C567.569 447.801 566.969 448.241 566.969 448.241C567.593 447.914 568.167 447.498 568.671 447.007Z" fill="url(#paint0_linear)"/>
<path d="M570.001 448.339C568.9 449.133 568.299 449.572 568.299 449.572C568.924 449.246 569.497 448.83 570.001 448.339Z" fill="url(#paint1_linear)"/>
<path d="M570.001 447.007C568.9 447.801 568.299 448.241 568.299 448.241C568.924 447.914 569.497 447.498 570.001 447.007Z" fill="url(#paint2_linear)"/>
<g opacity="0.1">
<path opacity="0.1" d="M717.257 585.851C717.257 585.851 702.954 577.444 703.554 563.166L685.947 478.453C685.947 478.453 703.111 462.063 693.499 441.59C693.013 440.541 692.45 439.482 691.811 438.414C685.489 427.752 670.556 425.143 656.867 425.299C669.998 425.413 683.815 428.263 689.851 438.414C690.49 439.482 691.053 440.541 691.539 441.59C701.108 462.12 683.987 478.453 683.987 478.453L701.595 563.209C700.937 577.387 715.298 585.894 715.298 585.894C729.001 603.999 777.919 737.202 777.919 737.202L716.957 746.913C716.957 747.013 716.957 747.126 716.957 747.225L779.893 737.202C779.893 737.202 730.96 603.957 717.257 585.851Z" fill="black"/>
</g>
<g opacity="0.1">
<path opacity="0.1" d="M625.027 414.582C657.368 414.965 697.647 434.261 697.647 434.261C693.041 460.505 677.465 467.508 646.154 497.906C614.843 528.304 583.518 605.886 583.518 605.886C585.478 620.064 562.649 711.937 552.851 720.983C544.269 728.866 545.213 742.122 545.571 745.44L547.63 746.206C547.63 746.206 545.027 730.043 554.782 720.983C564.537 711.923 587.437 620.064 585.478 605.886C585.478 605.886 616.788 528.29 648.099 497.892C679.41 467.494 695.001 460.49 699.592 434.247C699.607 434.332 657.668 414.185 625.027 414.582Z" fill="black"/>
</g>
<g opacity="0.1">
<path opacity="0.1" d="M701.924 210.475C701.924 210.475 768.135 285.164 759.01 320.723C759.01 320.723 725.081 312.967 715.956 323.303C715.956 323.303 708.804 299.371 687.248 285.802C665.693 272.234 645.81 185.252 701.924 210.475Z" fill="black"/>
</g>
<path opacity="0.05" d="M624.907 70.1814L606.98 66.7112L606.854 67.3513L624.781 70.8215L624.907 70.1814Z" fill="black"/>
</g>
<defs>
<linearGradient id="paint0_linear" x1="1450.17" y1="1022.28" x2="1452.2" y2="1022.28" gradientUnits="userSpaceOnUse">
<stop stop-color="#808080" stop-opacity="0.25"/>
<stop offset="0.54" stop-color="#808080" stop-opacity="0.12"/>
<stop offset="1" stop-color="#808080" stop-opacity="0.1"/>
</linearGradient>
<linearGradient id="paint1_linear" x1="1453.09" y1="1024.76" x2="1455.13" y2="1024.76" gradientUnits="userSpaceOnUse">
<stop stop-color="#808080" stop-opacity="0.25"/>
<stop offset="0.54" stop-color="#808080" stop-opacity="0.12"/>
<stop offset="1" stop-color="#808080" stop-opacity="0.1"/>
</linearGradient>
<linearGradient id="paint2_linear" x1="1453.09" y1="1022.28" x2="1455.13" y2="1022.28" gradientUnits="userSpaceOnUse">
<stop stop-color="#808080" stop-opacity="0.25"/>
<stop offset="0.54" stop-color="#808080" stop-opacity="0.12"/>
<stop offset="1" stop-color="#808080" stop-opacity="0.1"/>
</linearGradient>
</defs>
</svg>
