<svg width="520" height="426" viewBox="0 0 520 426" fill="none" xmlns="http://www.w3.org/2000/svg">
<path d="M316.144 319.416V422.126H58.8178C29.4989 422.126 5.64478 399.087 5.64478 370.771C5.64478 342.455 29.4989 319.416 58.8178 319.416H316.144Z" fill="#F2F2F2"/>
<path d="M322.465 421.336C322.464 422.383 322.048 423.388 321.307 424.129C320.566 424.869 319.562 425.286 318.514 425.286H54.2344C39.8808 425.286 26.1152 419.584 15.9657 409.435C5.81619 399.285 0.114258 385.52 0.114258 371.166C0.114258 356.812 5.81619 343.047 15.9657 332.897C26.1152 322.748 39.8808 317.046 54.2344 317.046H318.514C319.562 317.046 320.567 317.462 321.308 318.203C322.048 318.944 322.465 319.949 322.465 320.996C322.465 322.044 322.048 323.049 321.308 323.79C320.567 324.53 319.562 324.947 318.514 324.947H54.2344C41.9762 324.947 30.2201 329.816 21.5523 338.484C12.8845 347.152 8.015 358.908 8.015 371.166C8.015 383.424 12.8845 395.18 21.5523 403.848C30.2201 412.516 41.9762 417.385 54.2344 417.385H318.514C319.562 417.386 320.566 417.802 321.307 418.543C322.048 419.284 322.464 420.288 322.465 421.336Z" fill="#29AB87"/>
<path d="M316.144 343.118H39.618C39.4084 343.118 39.2075 343.035 39.0593 342.887C38.9112 342.739 38.8279 342.538 38.8279 342.328C38.8279 342.119 38.9112 341.918 39.0593 341.77C39.2075 341.621 39.4084 341.538 39.618 341.538H316.144C316.354 341.538 316.555 341.621 316.703 341.77C316.851 341.918 316.934 342.119 316.934 342.328C316.934 342.538 316.851 342.739 316.703 342.887C316.555 343.035 316.354 343.118 316.144 343.118Z" fill="#CCCCCC"/>
<path d="M316.144 362.08H39.618C39.4084 362.08 39.2075 361.997 39.0593 361.849C38.9112 361.701 38.8279 361.5 38.8279 361.29C38.8279 361.081 38.9112 360.88 39.0593 360.731C39.2075 360.583 39.4084 360.5 39.618 360.5H316.144C316.354 360.5 316.555 360.583 316.703 360.731C316.851 360.88 316.934 361.081 316.934 361.29C316.934 361.5 316.851 361.701 316.703 361.849C316.555 361.997 316.354 362.08 316.144 362.08Z" fill="#CCCCCC"/>
<path d="M316.144 381.042H39.618C39.4084 381.042 39.2075 380.959 39.0593 380.811C38.9112 380.662 38.8279 380.461 38.8279 380.252C38.8279 380.042 38.9112 379.841 39.0593 379.693C39.2075 379.545 39.4084 379.462 39.618 379.462H316.144C316.354 379.462 316.555 379.545 316.703 379.693C316.851 379.841 316.934 380.042 316.934 380.252C316.934 380.461 316.851 380.662 316.703 380.811C316.555 380.959 316.354 381.042 316.144 381.042Z" fill="#CCCCCC"/>
<path d="M316.144 400.004H39.618C39.4084 400.004 39.2075 399.92 39.0593 399.772C38.9112 399.624 38.8279 399.423 38.8279 399.214C38.8279 399.004 38.9112 398.803 39.0593 398.655C39.2075 398.507 39.4084 398.424 39.618 398.424H316.144C316.354 398.424 316.555 398.507 316.703 398.655C316.851 398.803 316.934 399.004 316.934 399.214C316.934 399.423 316.851 399.624 316.703 399.772C316.555 399.92 316.354 400.004 316.144 400.004Z" fill="#CCCCCC"/>
<path d="M515.02 338.749L450.577 418.727L250.202 257.276C227.372 238.88 223.253 205.974 241.019 183.925C258.785 161.875 291.815 158.902 314.645 177.298L515.02 338.749Z" fill="#F2F2F2"/>
<path d="M455.995 422.079C455.337 422.894 454.383 423.415 453.341 423.527C452.3 423.639 451.256 423.333 450.44 422.676L244.651 256.861C233.474 247.856 226.332 234.779 224.797 220.508C223.262 206.236 227.459 191.94 236.464 180.763C245.47 169.586 258.547 162.445 272.818 160.91C287.089 159.374 301.386 163.571 312.563 172.577L518.352 338.392C518.757 338.717 519.093 339.119 519.342 339.574C519.591 340.03 519.747 340.53 519.803 341.046C519.859 341.562 519.812 342.083 519.666 342.581C519.52 343.079 519.277 343.544 518.952 343.948C518.626 344.352 518.224 344.688 517.768 344.937C517.313 345.185 516.813 345.342 516.297 345.397C515.781 345.452 515.259 345.406 514.761 345.259C514.263 345.113 513.799 344.87 513.395 344.544L307.606 178.729C302.88 174.918 297.449 172.075 291.624 170.364C285.799 168.652 279.694 168.104 273.658 168.753C267.622 169.401 261.772 171.232 256.443 174.141C251.115 177.051 246.412 180.981 242.602 185.709C238.793 190.436 235.953 195.868 234.243 201.693C232.534 207.519 231.989 213.624 232.639 219.66C233.29 225.696 235.123 231.545 238.035 236.873C240.946 242.2 244.879 246.902 249.608 250.709L455.397 416.524C456.213 417.182 456.734 418.136 456.846 419.178C456.958 420.219 456.652 421.263 455.995 422.079Z" fill="#CCCCCC"/>
<path d="M500.148 357.206L284.823 183.708C284.742 183.643 284.675 183.563 284.625 183.471C284.575 183.38 284.544 183.28 284.533 183.177C284.522 183.074 284.531 182.97 284.56 182.87C284.59 182.771 284.638 182.678 284.703 182.597C284.768 182.516 284.849 182.449 284.94 182.399C285.031 182.35 285.131 182.318 285.234 182.307C285.337 182.296 285.441 182.305 285.541 182.335C285.641 182.364 285.733 182.412 285.814 182.478L501.14 355.976C501.22 356.041 501.288 356.121 501.338 356.212C501.387 356.303 501.419 356.403 501.43 356.507C501.441 356.61 501.432 356.714 501.403 356.814C501.374 356.914 501.325 357.007 501.26 357.087C501.195 357.168 501.114 357.235 501.023 357.285C500.932 357.335 500.832 357.366 500.729 357.377C500.625 357.388 500.521 357.379 500.421 357.35C500.322 357.32 500.229 357.272 500.148 357.206V357.206Z" fill="#CCCCCC"/>
<path d="M488.251 371.972L272.926 198.473C272.763 198.342 272.659 198.151 272.637 197.943C272.614 197.735 272.676 197.526 272.807 197.363C272.938 197.2 273.129 197.096 273.337 197.073C273.545 197.051 273.754 197.112 273.917 197.243L489.242 370.741C489.323 370.806 489.391 370.887 489.441 370.978C489.49 371.069 489.522 371.169 489.533 371.272C489.544 371.375 489.535 371.48 489.506 371.579C489.477 371.679 489.428 371.772 489.363 371.853C489.298 371.934 489.217 372.001 489.126 372.051C489.035 372.1 488.935 372.132 488.832 372.143C488.728 372.154 488.624 372.144 488.524 372.115C488.425 372.086 488.332 372.037 488.251 371.972Z" fill="#CCCCCC"/>
<path d="M476.354 386.737L261.029 213.239C260.866 213.107 260.761 212.916 260.739 212.708C260.716 212.499 260.778 212.291 260.909 212.128C261.041 211.964 261.232 211.86 261.44 211.838C261.648 211.815 261.857 211.877 262.02 212.008L477.345 385.506C477.426 385.571 477.493 385.652 477.543 385.743C477.593 385.834 477.624 385.934 477.635 386.037C477.646 386.14 477.637 386.245 477.608 386.344C477.579 386.444 477.53 386.536 477.465 386.617C477.4 386.698 477.319 386.765 477.228 386.815C477.137 386.865 477.037 386.896 476.934 386.907C476.831 386.918 476.727 386.909 476.627 386.88C476.528 386.85 476.435 386.802 476.354 386.737V386.737Z" fill="#CCCCCC"/>
<path d="M464.457 401.502L249.132 228.004C249.051 227.939 248.984 227.858 248.934 227.767C248.884 227.676 248.853 227.576 248.842 227.473C248.831 227.37 248.84 227.266 248.869 227.166C248.899 227.067 248.947 226.974 249.012 226.893C249.077 226.812 249.158 226.745 249.249 226.695C249.34 226.646 249.44 226.614 249.543 226.603C249.646 226.592 249.75 226.601 249.85 226.631C249.949 226.66 250.042 226.708 250.123 226.773L465.448 400.272C465.529 400.337 465.597 400.417 465.647 400.508C465.696 400.599 465.728 400.699 465.739 400.803C465.75 400.906 465.741 401.01 465.712 401.11C465.682 401.21 465.634 401.302 465.569 401.383C465.504 401.464 465.423 401.531 465.332 401.581C465.241 401.631 465.141 401.662 465.038 401.673C464.934 401.684 464.83 401.675 464.73 401.645C464.631 401.616 464.538 401.567 464.457 401.502Z" fill="#CCCCCC"/>
<path d="M208.668 308.621L199.635 308.62L195.34 273.781L208.671 273.782L208.668 308.621Z" fill="#FFB8B8"/>
<path d="M193.183 306.039H210.603V317.007H182.216C182.216 315.566 182.499 314.14 183.05 312.81C183.602 311.479 184.41 310.27 185.428 309.251C186.446 308.233 187.656 307.425 188.986 306.874C190.317 306.323 191.743 306.039 193.183 306.039Z" fill="#2F2E41"/>
<path d="M116.391 308.621L107.359 308.62L103.063 273.781L116.394 273.782L116.391 308.621Z" fill="#FFB8B8"/>
<path d="M100.907 306.039H118.326V317.007H89.9391C89.9391 315.566 90.2228 314.14 90.774 312.81C91.3252 311.479 92.133 310.27 93.1515 309.251C94.1699 308.233 95.379 307.425 96.7097 306.874C98.0404 306.323 99.4666 306.039 100.907 306.039Z" fill="#2F2E41"/>
<path d="M146.56 50.1961V46.2456C146.56 39.488 149.244 33.0071 154.023 28.2286C158.801 23.4502 165.282 20.7657 172.04 20.7657H172.04C178.797 20.7657 185.278 23.4502 190.057 28.2286C194.835 33.0071 197.52 39.488 197.52 46.2456V50.1961C197.52 55.0679 195.584 59.7402 192.139 63.1851C188.695 66.63 184.022 68.5653 179.15 68.5653H164.929C162.517 68.5653 160.128 68.0902 157.9 67.167C155.671 66.2439 153.646 64.8908 151.94 63.1851C150.234 61.4793 148.881 59.4543 147.958 57.2257C147.035 54.997 146.56 52.6084 146.56 50.1961Z" fill="#2F2E41"/>
<path d="M172.04 69.9247C182.757 69.9247 191.445 61.2368 191.445 50.5197C191.445 39.8026 182.757 31.1146 172.04 31.1146C161.323 31.1146 152.635 39.8026 152.635 50.5197C152.635 61.2368 161.323 69.9247 172.04 69.9247Z" fill="#FFB8B8"/>
<path d="M66.4887 117.212C67.2761 116.469 68.2171 115.907 69.2452 115.566C70.2733 115.226 71.3636 115.115 72.4393 115.241C73.515 115.367 74.5499 115.728 75.4711 116.298C76.3923 116.867 77.1774 117.632 77.7711 118.538L94.4059 115.391L98.7836 125.034L75.2297 129.147C73.6419 130.044 71.7803 130.327 69.9978 129.942C68.2152 129.558 66.6356 128.533 65.5581 127.062C64.4807 125.591 63.9803 123.776 64.1518 121.961C64.3233 120.145 65.1548 118.456 66.4887 117.212V117.212Z" fill="#FFB8B8"/>
<path d="M156.911 82.1451L157.129 82.4748L129.851 100.445L83.8224 115.142C83.2122 115.339 82.6889 115.74 82.3414 116.278C81.994 116.817 81.8439 117.459 81.9167 118.096L82.9208 126.745C82.9654 127.127 83.0894 127.497 83.285 127.829C83.4805 128.161 83.7434 128.448 84.0565 128.673C84.3697 128.897 84.7264 129.054 85.1036 129.133C85.4809 129.211 85.8704 129.21 86.2472 129.129L129.567 119.844C131.663 119.397 133.646 118.524 135.391 117.28L166.036 95.4761C167.147 94.6814 168.034 93.6127 168.609 92.374C169.185 91.1352 169.43 89.7686 169.322 88.407C169.209 87.0435 168.744 85.7327 167.971 84.6036C167.198 83.4745 166.145 82.5661 164.915 81.9675C163.685 81.3689 162.32 81.1009 160.955 81.1899C159.589 81.2788 158.271 81.7216 157.129 82.4748L156.911 82.1451Z" fill="#CCCCCC"/>
<path d="M199.797 298.734C199.104 298.734 198.425 298.533 197.845 298.154C197.264 297.775 196.807 297.235 196.528 296.6L155.12 194.285C155.023 194.063 154.861 193.876 154.655 193.749C154.449 193.622 154.209 193.561 153.967 193.575C153.725 193.588 153.494 193.676 153.303 193.825C153.113 193.974 152.972 194.178 152.901 194.41L119.119 294.017C118.976 294.481 118.74 294.91 118.426 295.279C118.111 295.648 117.724 295.949 117.289 296.163C116.853 296.377 116.379 296.5 115.895 296.523C115.41 296.547 114.926 296.472 114.472 296.301L103.144 292.053C102.529 291.825 101.989 291.43 101.585 290.913C101.181 290.397 100.928 289.778 100.855 289.126C95.7584 244.73 140.2 132.668 140.65 131.542L140.775 131.229L181.287 140.191L181.372 140.283C197.535 157.916 210.82 269.13 213.32 291.245C213.413 292.044 213.231 292.851 212.804 293.533C212.378 294.214 211.731 294.73 210.972 294.996L200.973 298.532C200.595 298.666 200.198 298.734 199.797 298.734Z" fill="#2F2E41"/>
<path d="M164.891 143.798C155.075 143.798 144.132 141.841 140.764 133.764L140.686 133.578L140.791 133.406C143.45 129.044 146.964 121.602 145.075 120.205C141.354 117.454 139.549 112.929 139.709 106.754C140.057 93.3497 149.19 81.4488 162.436 77.1401H162.437C166.134 75.9568 169.896 74.9881 173.705 74.2386C176.482 73.6783 179.349 73.7399 182.099 74.4191C184.849 75.0982 187.415 76.3781 189.612 78.1666C191.836 79.9669 193.634 82.2375 194.877 84.8153C196.119 87.3932 196.775 90.2142 196.798 93.0758C196.937 107.401 194.732 127.352 183.436 141.049C182.907 141.685 182.17 142.113 181.356 142.259C175.922 143.242 170.413 143.757 164.891 143.798Z" fill="#CCCCCC"/>
<path d="M161.239 143.262C161.774 141.346 163.042 139.718 164.77 138.732C166.498 137.746 168.545 137.482 170.466 137.997C170.859 138.106 171.241 138.248 171.61 138.42L184.241 126.926L193.025 132.844L174.962 148.828C174.147 150.298 172.863 151.454 171.315 152.11C169.767 152.767 168.043 152.887 166.419 152.451C165.473 152.192 164.588 151.748 163.814 151.145C163.041 150.542 162.394 149.791 161.913 148.937C161.431 148.082 161.124 147.141 161.008 146.167C160.892 145.193 160.971 144.205 161.239 143.262Z" fill="#FFB8B8"/>
<path d="M182.24 143.407C181.421 143.408 180.626 143.124 179.992 142.605L175.011 138.535C174.596 138.195 174.263 137.767 174.037 137.28C173.811 136.794 173.698 136.263 173.706 135.727C173.714 135.191 173.844 134.663 174.085 134.184C174.326 133.705 174.672 133.287 175.097 132.961L195.988 116.938C196.236 116.747 196.398 116.466 196.44 116.157C196.482 115.847 196.4 115.533 196.212 115.283L183.318 98.2364C181.82 96.2624 181.069 93.8221 181.197 91.3474C181.325 88.8727 182.325 86.5232 184.019 84.7148C185.803 82.7877 188.247 81.6019 190.865 81.3925C193.483 81.1831 196.084 81.9655 198.152 83.5845L198.233 83.6705L211.698 102.95C213.154 104.092 214.326 105.554 215.123 107.224C215.921 108.894 216.321 110.725 216.294 112.575C216.266 114.425 215.811 116.243 214.965 117.889C214.118 119.534 212.903 120.961 211.413 122.059L184.357 142.71C183.744 143.163 183.002 143.407 182.24 143.407Z" fill="#CCCCCC"/>
<path d="M154.851 45.0602V35.4322L172.04 27.9265L188.429 35.4322V45.0602C188.429 45.4793 188.263 45.8812 187.967 46.1775C187.67 46.4739 187.268 46.6403 186.849 46.6403H156.431C156.012 46.6403 155.61 46.4739 155.314 46.1775C155.018 45.8812 154.851 45.4793 154.851 45.0602Z" fill="#2F2E41"/>
<path d="M171.251 22.0428C168.723 13.9536 174.031 4.68299 181.878 1.48108C189.724 -1.72083 199.112 0.517405 205.733 5.80744C212.354 11.0975 216.462 19.021 218.639 27.2115C220.815 35.402 221.228 43.9428 221.63 52.408C231.271 54.1789 237.829 65.6136 234.489 74.829C231.149 84.0445 218.788 88.6228 210.251 83.8061C201.715 78.9894 199.242 66.0416 205.403 58.4181C208.319 54.8108 209.947 50.334 210.031 45.6967C210.115 41.0594 208.649 36.5267 205.866 32.8165C203.083 29.1063 199.141 26.4307 194.666 25.2135C190.19 23.9962 185.437 24.3069 181.158 26.0964C176.406 28.0833 170.445 22.9207 171.251 22.0428Z" fill="#2F2E41"/>
<path d="M62.9252 79.863C51.3827 79.7873 39.9845 77.2909 29.467 72.5352C28.8409 72.2561 28.3095 71.801 27.9375 71.2253C27.5655 70.6496 27.369 69.9781 27.3719 69.2927V40.5198C27.3729 39.5772 27.7478 38.6735 28.4144 38.007C29.0809 37.3404 29.9846 36.9655 30.9272 36.9645H94.9232C95.8658 36.9655 96.7695 37.3405 97.4361 38.007C98.1026 38.6735 98.4775 39.5772 98.4786 40.5198V69.2927C98.4814 69.9782 98.2849 70.6496 97.9129 71.2253C97.5409 71.8011 97.0095 72.2562 96.3834 72.5352C85.8659 77.2909 74.4677 79.7873 62.9252 79.863Z" fill="#29AB87"/>
<path d="M62.9164 56.5537C62.442 56.5541 61.9722 56.4596 61.5348 56.2759L10.7868 34.8652C10.1324 34.5891 9.57565 34.1233 9.18839 33.5279C8.80114 32.9325 8.60112 32.2347 8.61414 31.5245C8.62715 30.8144 8.85262 30.1244 9.26143 29.5435C9.67023 28.9627 10.2436 28.5176 10.9078 28.2657L61.6564 9.01337C62.4738 8.70186 63.3776 8.70378 64.1936 9.01878L114.262 28.2711C114.923 28.525 115.492 28.9702 115.898 29.5496C116.304 30.1291 116.528 30.8165 116.541 31.5239C116.554 32.2312 116.356 32.9264 115.971 33.5205C115.587 34.1145 115.034 34.5805 114.384 34.8586L64.3148 56.269C63.8726 56.4572 63.397 56.5541 62.9164 56.5537Z" fill="#29AB87"/>
<path d="M33.2974 74.4931C35.9155 74.4931 38.0378 72.3707 38.0378 69.7527C38.0378 67.1346 35.9155 65.0122 33.2974 65.0122C30.6793 65.0122 28.5569 67.1346 28.5569 69.7527C28.5569 72.3707 30.6793 74.4931 33.2974 74.4931Z" fill="#3F3D56"/>
<path opacity="0.2" d="M114.557 31.8193L64.4875 53.2297C64.0971 53.3966 63.6771 53.4831 63.2526 53.4841C62.8281 53.4852 62.4077 53.4007 62.0165 53.2356L11.2685 31.8255C10.6312 31.5631 10.0995 31.0957 9.75744 30.4974C9.53366 30.8854 9.39501 31.3166 9.35066 31.7623C9.3063 32.208 9.35728 32.6581 9.50019 33.0826C9.64311 33.5071 9.87469 33.8963 10.1796 34.2245C10.4845 34.5526 10.8557 34.8122 11.2685 34.9858L62.0165 56.3959C62.4077 56.5609 62.8281 56.6455 63.2526 56.6444C63.6771 56.6434 64.0971 56.5569 64.4875 56.39L114.557 34.9796C114.968 34.8044 115.337 34.544 115.639 34.2157C115.942 33.8874 116.172 33.4987 116.313 33.0751C116.455 32.6515 116.505 32.2027 116.46 31.7583C116.415 31.314 116.277 30.8842 116.054 30.4973C115.714 31.0909 115.188 31.5556 114.557 31.8193Z" fill="black"/>
<path d="M33.6957 69.734C33.9052 69.734 34.1062 69.6508 34.2544 69.5026C34.4026 69.3545 34.4858 69.1535 34.4858 68.944V42.507L60.5434 33.0141C60.7529 33.0172 60.9551 32.937 61.1055 32.791C61.2559 32.6451 61.3421 32.4453 61.3452 32.2358C61.3483 32.0263 61.2681 31.8241 61.1221 31.6737C60.9762 31.5233 60.7765 31.4371 60.5669 31.434L34.5093 40.9268C34.2996 40.922 34.0911 40.9598 33.8965 41.0379C33.7018 41.116 33.525 41.2328 33.3769 41.3813C33.2271 41.5279 33.1082 41.7031 33.0273 41.8964C32.9464 42.0898 32.905 42.2974 32.9056 42.507V68.944C32.9056 69.1535 32.9889 69.3545 33.1371 69.5026C33.2852 69.6508 33.4862 69.734 33.6957 69.734Z" fill="#3F3D56"/>
</svg>
