<svg width="14" height="14" viewBox="0 0 14 14" fill="none" xmlns="http://www.w3.org/2000/svg">
<path d="M13.8104 12.7887L11.1976 10.203C13.1805 7.73378 12.9939 4.09983 10.731 1.84027C9.54128 0.652246 7.97828 0 6.29865 0C4.61901 0 3.03268 0.652246 1.84294 1.84027C0.653193 3.02829 0 4.58902 0 6.28952C0 7.99002 0.653193 9.55075 1.84294 10.7388C3.03268 11.9035 4.59568 12.579 6.29865 12.579C7.72167 12.579 9.12137 12.0898 10.2178 11.2047L12.8072 13.7903C12.9472 13.9301 13.1105 14 13.2971 14C13.4838 14 13.6704 13.9301 13.787 13.7903C14.067 13.5108 14.067 13.0682 13.8104 12.7887ZM11.1976 6.28952C11.1976 7.59401 10.6844 8.82862 9.75124 9.73711C8.8181 10.6456 7.60503 11.1814 6.29865 11.1814C4.99226 11.1814 3.75586 10.6689 2.84605 9.73711C1.93625 8.80532 1.3997 7.59401 1.3997 6.28952C1.3997 4.98503 1.91292 3.75042 2.84605 2.84193C3.77919 1.93344 4.96893 1.39767 6.29865 1.39767C7.60503 1.39767 8.84143 1.91015 9.75124 2.84193C10.661 3.77371 11.1976 4.96173 11.1976 6.28952Z" fill="#707070"/>
</svg>
