<?xml version="1.0" standalone="no"?>
<!DOCTYPE svg PUBLIC "-//W3C//DTD SVG 20010904//EN"
 "http://www.w3.org/TR/2001/REC-SVG-20010904/DTD/svg10.dtd">
<svg version="1.0" xmlns="http://www.w3.org/2000/svg"
 width="2144.000000pt" height="2143.000000pt" viewBox="0 0 2144.000000 2143.000000"
 preserveAspectRatio="xMidYMid meet">
<metadata>
Created by potrace 1.16, written by Peter Selinger 2001-2019
</metadata>
<g transform="translate(0.000000,2143.000000) scale(0.100000,-0.100000)"
fill="#000000" stroke="none">
<path d="M10115 21409 c-2034 -119 -3951 -792 -5605 -1969 -552 -392 -1046
-822 -1547 -1345 -1660 -1732 -2691 -4006 -2907 -6405 -42 -467 -55 -1206 -28
-1610 69 -1025 233 -1867 542 -2790 448 -1340 1141 -2544 2095 -3642 182 -209
725 -757 925 -934 949 -839 1975 -1477 3120 -1942 1083 -439 2228 -693 3434
-762 227 -13 938 -13 1161 0 1285 74 2471 349 3630 842 257 109 746 349 994
487 1507 842 2780 2019 3725 3444 285 431 454 723 681 1182 733 1479 1105
3077 1105 4745 0 1670 -371 3262 -1105 4745 -226 458 -395 751 -681 1182 -868
1309 -2033 2428 -3375 3240 -521 316 -1153 627 -1697 834 -1062 406 -2121 632
-3277 699 -199 11 -987 11 -1190 -1z m-3035 -4828 c290 -60 499 -168 686 -355
218 -219 334 -477 363 -808 49 -583 -289 -1099 -847 -1292 -190 -66 -296 -81
-557 -81 -199 1 -244 4 -332 23 -544 118 -909 476 -1020 1002 -25 119 -25 391
0 510 84 397 314 697 671 877 131 66 345 126 526 147 92 11 418 -4 510 -23z
m7400 -3405 c622 -88 1099 -311 1499 -701 147 -143 222 -234 343 -415 310
-464 495 -1072 548 -1795 6 -89 10 -969 10 -2407 l0 -2268 -1235 0 -1235 0 0
2028 c0 1202 -4 2086 -10 2172 -43 636 -230 1054 -573 1278 -358 234 -926 239
-1320 10 -340 -196 -605 -575 -674 -960 -15 -84 -17 -303 -20 -2310 l-4 -2218
-1240 0 -1241 0 7 143 c10 199 12 7236 2 7270 l-7 27 1240 0 1240 0 2 -521 3
-521 60 88 c445 658 1037 1021 1810 1109 163 19 636 13 795 -9z m-6510 -3866
l0 -3720 -1235 0 -1235 0 0 3720 0 3720 1235 0 1235 0 0 -3720z"/>
</g>
</svg>
